<svg version="1.2" xmlns="http://www.w3.org/2000/svg" viewBox="0 0 64 64" width="64" height="64">
	<title>dead</title>
	<style>
		.s0 { fill: #ffffff } 
	</style>
	<g id="_12-dizzy">
		<path fill-rule="evenodd" class="s0" d="m32 0h4v4h-4z"/>
		<path fill-rule="evenodd" class="s0" d="m36 0h4v4h-4z"/>
		<path fill-rule="evenodd" class="s0" d="m28 0h4v4h-4z"/>
		<path fill-rule="evenodd" class="s0" d="m24 0h4v4h-4z"/>
		<path fill-rule="evenodd" class="s0" d="m20 4h4v4h-4z"/>
		<path fill-rule="evenodd" class="s0" d="m16 4h4v4h-4z"/>
		<path fill-rule="evenodd" class="s0" d="m44 4h4v4h-4z"/>
		<path fill-rule="evenodd" class="s0" d="m40 4h4v4h-4z"/>
		<path fill-rule="evenodd" class="s0" d="m32 60h4v4h-4z"/>
		<path fill-rule="evenodd" class="s0" d="m36 60h4v4h-4z"/>
		<path fill-rule="evenodd" class="s0" d="m28 60h4v4h-4z"/>
		<path fill-rule="evenodd" class="s0" d="m24 60h4v4h-4z"/>
		<path fill-rule="evenodd" class="s0" d="m20 56h4v4h-4z"/>
		<path fill-rule="evenodd" class="s0" d="m16 56h4v4h-4z"/>
		<path fill-rule="evenodd" class="s0" d="m44 56h4v4h-4z"/>
		<path fill-rule="evenodd" class="s0" d="m40 56h4v4h-4z"/>
		<path fill-rule="evenodd" class="s0" d="m64 32v4h-4v-4z"/>
		<path fill-rule="evenodd" class="s0" d="m64 36v4h-4v-4z"/>
		<path fill-rule="evenodd" class="s0" d="m64 28v4h-4v-4z"/>
		<path fill-rule="evenodd" class="s0" d="m64 24v4h-4v-4z"/>
		<path fill-rule="evenodd" class="s0" d="m60 20v4h-4v-4z"/>
		<path fill-rule="evenodd" class="s0" d="m60 16v4h-4v-4z"/>
		<path fill-rule="evenodd" class="s0" d="m60 44v4h-4v-4z"/>
		<path fill-rule="evenodd" class="s0" d="m60 40v4h-4v-4z"/>
		<path fill-rule="evenodd" class="s0" d="m4 32v4h-4v-4z"/>
		<path fill-rule="evenodd" class="s0" d="m4 36v4h-4v-4z"/>
		<path fill-rule="evenodd" class="s0" d="m4 28v4h-4v-4z"/>
		<path fill-rule="evenodd" class="s0" d="m4 24v4h-4v-4z"/>
		<path fill-rule="evenodd" class="s0" d="m8 20v4h-4v-4z"/>
		<path fill-rule="evenodd" class="s0" d="m8 16v4h-4v-4z"/>
		<path fill-rule="evenodd" class="s0" d="m8 44v4h-4v-4z"/>
		<path fill-rule="evenodd" class="s0" d="m8 40v4h-4v-4z"/>
		<path fill-rule="evenodd" class="s0" d="m12 8h4v4h-4z"/>
		<path fill-rule="evenodd" class="s0" d="m48 8h4v4h-4z"/>
		<path fill-rule="evenodd" class="s0" d="m8 12h4v4h-4z"/>
		<path fill-rule="evenodd" class="s0" d="m8 48h4v4h-4z"/>
		<path fill-rule="evenodd" class="s0" d="m12 52h4v4h-4z"/>
		<path fill-rule="evenodd" class="s0" d="m48 52h4v4h-4z"/>
		<path fill-rule="evenodd" class="s0" d="m52 48h4v4h-4z"/>
		<path fill-rule="evenodd" class="s0" d="m52 12h4v4h-4z"/>
		<path fill-rule="evenodd" class="s0" d="m35 12.5v5h-5v-5z"/>
		<path fill-rule="evenodd" class="s0" d="m35 16.5v5h-5v-5z"/>
		<path fill-rule="evenodd" class="s0" d="m35 20.5v5h-5v-5z"/>
		<path fill-rule="evenodd" class="s0" d="m35 8v5h-5v-5z"/>
		<path fill-rule="evenodd" class="s0" d="m35 25v5h-5v-5z"/>
		<path fill-rule="evenodd" class="s0" d="m35 50v5h-5v-5z"/>
		<path fill-rule="evenodd" class="s0" d="m35 36.5v5h-5v-5z"/>
		<path fill-rule="evenodd" class="s0" d="m35 32.5v5h-5v-5z"/>
		<path fill-rule="evenodd" class="s0" d="m35 41v5h-5v-5z"/>
		<path fill-rule="evenodd" class="s0" d="m35 28.5v5h-5v-5z"/>
	</g>
</svg>